<svg width="25" height="37" viewBox="0 0 25 37" fill="none" xmlns="http://www.w3.org/2000/svg">
<rect width="25" height="37" fill="#E5E5E5"/>
<rect width="421" height="563" transform="translate(-20 -12)" fill="white"/>
<path d="M12.436 40.5812L-1.4494 34.3569V20.9043V7.15059L-9 10.5639H-5.8006V36.4149L12.436 44.6471L30.9286 36.4651V10.5137H34L26.3214 7V34.4071L12.436 40.5812Z" stroke="black"/>
<path d="M19.261 23.1883L1 15.4828V5.78117L12.5 1L24 5.87401V19.382L16.1016 16.0398H19.261V7.68435L12.5 4.85279L5.67582 7.73077V13.5796L24 21.4244V31.126L12.3736 36L1 31.0796V17.4324L8.70879 20.6817H5.67582V29.1764L12.3736 32.0544L19.261 29.0371V23.1883Z" stroke="black"/>
</svg>
